<?xml version="1.0" encoding="UTF-8"?>
<svg width="119px" height="60px" viewBox="0 0 119 60" version="1.1" xmlns="http://www.w3.org/2000/svg" xmlns:xlink="http://www.w3.org/1999/xlink">
    <!-- Generator: Sketch 63.1 (92452) - https://sketch.com -->
    <title>logoazul</title>
    <desc>Created with Sketch.</desc>
    <g id="PORTO-AMBIENTE" stroke="none" stroke-width="1" fill="none" fill-rule="evenodd">
        <g id="logoazul" fill="#0F2F7F" fill-rule="nonzero">
            <path d="M118.695652,60 L0,60 L0,0 L118.695652,0 L118.695652,60 Z M3.16966605,56.880985 L115.442574,56.880985 L115.442574,3.11901505 L3.16966605,3.11901505 L3.16966605,56.880985 Z" id="Shape"></path>
            <g id="Group" transform="translate(16.956522, 18.260870)">
                <path d="M6.06777494,23.5434783 L0.249360614,23.5434783 L0.249360614,0.0826086957 L8.81074169,0.0826086957 C14.7122762,0.0826086957 17.7046036,3.7173913 17.7046036,8.17826087 C17.7046036,12.6391304 14.7122762,16.4391304 8.81074169,16.4391304 L6.06777494,16.4391304 L6.06777494,23.5434783 Z M6.06777494,5.03913043 L6.06777494,11.3173913 L7.73017903,11.3173913 C10.0575448,11.3173913 11.8861893,10.4913043 11.8861893,8.09565217 C11.8861893,5.7 10.140665,5.03913043 7.73017903,5.03913043 L6.06777494,5.03913043 L6.06777494,5.03913043 Z" id="Shape"></path>
                <path d="M17.7046036,15.7782609 C17.7046036,10.9869565 21.4450128,7.6 26.1828645,7.6 C30.9207161,7.6 34.6611253,10.9869565 34.6611253,15.7782609 C34.6611253,20.5695652 30.9207161,24.0391304 26.1828645,24.0391304 C21.528133,23.9565217 17.7046036,20.4869565 17.7046036,15.7782609 Z M23.1074169,15.7782609 C23.1074169,17.6782609 24.3542199,19.1652174 26.1828645,19.1652174 C27.9283887,19.1652174 29.258312,17.7608696 29.258312,15.7782609 C29.258312,13.7956522 28.011509,12.473913 26.1828645,12.473913 C24.3542199,12.3913043 23.1074169,13.7956522 23.1074169,15.7782609 Z" id="Shape"></path>
                <path d="M46.4641944,12.3913043 L44.4693095,12.3913043 C42.1419437,12.3913043 41.5601023,14.373913 41.5601023,16.3565217 L41.5601023,23.5434783 L36.157289,23.5434783 L36.157289,7.93043478 L41.3938619,7.93043478 L41.3938619,10.4086957 C41.7263427,8.59130435 42.8900256,7.84782609 43.887468,7.84782609 C44.3030691,7.84782609 46.4641944,7.93043478 46.4641944,7.93043478 L46.4641944,12.3913043 L46.4641944,12.3913043 Z" id="Path"></path>
                <path d="M55.7736573,2.39565217 L55.7736573,8.01304348 L58.9322251,8.01304348 L58.9322251,12.3913043 L55.7736573,12.3913043 L55.7736573,18.0913043 C55.7736573,19 56.5217391,19.1652174 57.1867008,19.1652174 C58.1841432,19.1652174 58.9322251,19.0826087 58.9322251,19.0826087 L58.9322251,23.7086957 C58.9322251,23.7086957 56.3554987,23.873913 55.1086957,23.873913 C52.5319693,23.873913 50.370844,23.1304348 50.370844,19.9086957 L50.370844,12.3913043 L48.0434783,12.3913043 L48.0434783,8.01304348 L50.370844,8.01304348 L50.370844,2.39565217 L55.7736573,2.39565217 Z" id="Path"></path>
                <path d="M60.0959079,15.7782609 C60.0959079,10.9869565 63.8363171,7.6 68.5741688,7.6 C73.3120205,7.6 77.0524297,10.9869565 77.0524297,15.7782609 C77.0524297,20.5695652 73.3120205,24.0391304 68.5741688,24.0391304 C63.8363171,23.9565217 60.0959079,20.4869565 60.0959079,15.7782609 Z M65.4987212,15.7782609 C65.4987212,17.6782609 66.7455243,19.1652174 68.5741688,19.1652174 C70.3196931,19.1652174 71.6496164,17.7608696 71.6496164,15.7782609 C71.6496164,13.7956522 70.4028133,12.473913 68.5741688,12.473913 C66.7455243,12.3913043 65.4987212,13.7956522 65.4987212,15.7782609 Z" id="Shape"></path>
                <path d="M81.2084399,17.2652174 C83.1202046,17.2652174 84.6163683,18.7521739 84.6163683,20.6521739 C84.6163683,22.4695652 83.1202046,24.0391304 81.2084399,24.0391304 C79.3797954,24.0391304 77.8005115,22.5521739 77.8005115,20.6521739 C77.8836317,18.7521739 79.3797954,17.2652174 81.2084399,17.2652174 Z" id="Path"></path>
            </g>
        </g>
    </g>
</svg>